<svg width="49" height="49" viewBox="0 0 49 49" fill="none" xmlns="http://www.w3.org/2000/svg">
<path d="M43.158 12.598C42.3608 11.8007 41.068 11.8007 40.2707 12.598L25.378 27.4907L10.4853 12.598C9.68803 11.8007 8.39531 11.8007 7.598 12.598C6.80067 13.3953 6.80067 14.688 7.598 15.4853L22.4907 30.378L7.59804 45.2706C6.80071 46.068 6.80071 47.3606 7.59804 48.1581C8.39535 48.9554 9.68807 48.9554 10.4854 48.1581L25.378 33.2654L40.2707 48.1581C41.068 48.9554 42.3608 48.9554 43.158 48.1581C43.9553 47.3606 43.9553 46.068 43.158 45.2708L28.2653 30.378L43.158 15.4853C43.9553 14.688 43.9553 13.3953 43.158 12.598Z" fill="white"/>
</svg>
