<svg width="37" height="37" viewBox="0 0 37 37" fill="none" xmlns="http://www.w3.org/2000/svg">
<path d="M36.158 0.597999C35.3608 -0.199333 34.068 -0.199333 33.2707 0.597999L18.378 15.4907L3.48534 0.597999C2.68803 -0.199333 1.39531 -0.199333 0.597999 0.597999C-0.199333 1.39531 -0.199333 2.68803 0.597999 3.48534L15.4907 18.378L0.59804 33.2706C-0.199292 34.068 -0.199292 35.3606 0.59804 36.1581C1.39535 36.9554 2.68807 36.9554 3.48539 36.1581L18.378 21.2654L33.2707 36.1581C34.068 36.9554 35.3608 36.9554 36.158 36.1581C36.9553 35.3606 36.9553 34.068 36.158 33.2708L21.2653 18.378L36.158 3.48534C36.9553 2.68803 36.9553 1.39531 36.158 0.597999Z" fill="#DC5959"/>
</svg>
